REM DIRINDEX 1\2,1\3\7,1\3\8,1\4\9,1\4\10,1\4\11,1\5\12,1\5\13,1\5\14,1\6\15,1\6\16,1\6\17
REM DIRNAME "folder01","folder02","folder03","folder04","folder05","folder06","folder07","folder08","folder09","folder10","folder11","folder12","folder13","folder14","folder15","folder16","folder17"
TITLE ""
FILE "2Q_e_001-010.mp3" MP3
  TRACK 01 AUDIO
    TITLE "2:cjc174_0001"
    INDEX 01 00:00:00
  TRACK 02 AUDIO
    TITLE "0:"
    INDEX 01 00:01:47
  TRACK 03 AUDIO
    TITLE "15:cjc174_0002"
    INDEX 01 00:02:17
  TRACK 04 AUDIO
    TITLE "0:"
    INDEX 01 00:03:50
  TRACK 05 AUDIO
    TITLE "16:cjc174_0003"
    INDEX 01 00:04:22
  TRACK 06 AUDIO
    TITLE "0:"
    INDEX 01 00:06:46
  TRACK 07 AUDIO
    TITLE "17:cjc174_0004"
    INDEX 01 00:07:16
  TRACK 08 AUDIO
    TITLE "0:"
    INDEX 01 00:11:30
  TRACK 09 AUDIO
    TITLE "15:cjc174_0005"
    INDEX 01 00:12:02
  TRACK 10 AUDIO
    TITLE "0:"
    INDEX 01 00:13:42
  TRACK 11 AUDIO
    TITLE "16:cjc174_0006"
    INDEX 01 00:14:14
  TRACK 12 AUDIO
    TITLE "0:"
    INDEX 01 00:16:39
  TRACK 13 AUDIO
    TITLE "17:cjc174_0007"
    INDEX 01 00:17:09
  TRACK 14 AUDIO
    TITLE "0:"
    INDEX 01 00:21:09
  TRACK 15 AUDIO
    TITLE "15:cjc174_0008"
    INDEX 01 00:21:58
  TRACK 16 AUDIO
    TITLE "0:"
    INDEX 01 00:23:37
  TRACK 17 AUDIO
    TITLE "16:cjc174_0009"
    INDEX 01 00:24:11
  TRACK 18 AUDIO
    TITLE "0:"
    INDEX 01 00:27:07
  TRACK 19 AUDIO
    TITLE "17:cjc174_0010"
    INDEX 01 00:27:52
  TRACK 20 AUDIO
    TITLE "0:"
    INDEX 01 00:31:13
  TRACK 21 AUDIO
    TITLE "15:cjc174_0011"
    INDEX 01 00:31:68
  TRACK 22 AUDIO
    TITLE "0:"
    INDEX 01 00:34:35
  TRACK 23 AUDIO
    TITLE "16:cjc174_0012"
    INDEX 01 00:35:07
  TRACK 24 AUDIO
    TITLE "0:"
    INDEX 01 00:38:13
  TRACK 25 AUDIO
    TITLE "17:cjc174_0013"
    INDEX 01 00:38:60
  TRACK 26 AUDIO
    TITLE "0:"
    INDEX 01 00:43:26
  TRACK 27 AUDIO
    TITLE "15:cjc174_0014"
    INDEX 01 00:43:71
  TRACK 28 AUDIO
    TITLE "0:"
    INDEX 01 00:46:55
  TRACK 29 AUDIO
    TITLE "16:cjc174_0015"
    INDEX 01 00:47:29
  TRACK 30 AUDIO
    TITLE "0:"
    INDEX 01 00:50:28
  TRACK 31 AUDIO
    TITLE "17:cjc174_0016"
    INDEX 01 00:51:00
  TRACK 32 AUDIO
    TITLE "0:"
    INDEX 01 00:56:38
  TRACK 33 AUDIO
    TITLE "15:cjc174_0017"
    INDEX 01 00:57:08
  TRACK 34 AUDIO
    TITLE "0:"
    INDEX 01 00:59:44
  TRACK 35 AUDIO
    TITLE "16:cjc174_0018"
    INDEX 01 01:00:16
  TRACK 36 AUDIO
    TITLE "0:"
    INDEX 01 01:02:29
  TRACK 37 AUDIO
    TITLE "17:cjc174_0019"
    INDEX 01 01:02:74
  TRACK 38 AUDIO
    TITLE "0:"
    INDEX 01 01:10:40
  TRACK 39 AUDIO
    TITLE "15:cjc174_0020"
    INDEX 01 01:11:14
  TRACK 40 AUDIO
    TITLE "0:"
    INDEX 01 01:12:12
  TRACK 41 AUDIO
    TITLE "16:cjc174_0021"
    INDEX 01 01:12:61
  TRACK 42 AUDIO
    TITLE "0:"
    INDEX 01 01:14:69
  TRACK 43 AUDIO
    TITLE "17:cjc174_0022"
    INDEX 01 01:15:39
  TRACK 44 AUDIO
    TITLE "0:"
    INDEX 01 01:22:47
  TRACK 45 AUDIO
    TITLE "15:cjc174_0023"
    INDEX 01 01:23:17
  TRACK 46 AUDIO
    TITLE "0:"
    INDEX 01 01:24:27
  TRACK 47 AUDIO
    TITLE "16:cjc174_0024"
    INDEX 01 01:24:72
  TRACK 48 AUDIO
    TITLE "0:"
    INDEX 01 01:27:05
  TRACK 49 AUDIO
    TITLE "17:cjc174_0025"
    INDEX 01 01:27:52
  TRACK 50 AUDIO
    TITLE "0:"
    INDEX 01 01:35:42
  TRACK 51 AUDIO
    TITLE "15:cjc174_0026"
    INDEX 01 01:36:26
  TRACK 52 AUDIO
    TITLE "0:"
    INDEX 01 01:37:65
  TRACK 53 AUDIO
    TITLE "16:cjc174_0027"
    INDEX 01 01:38:35
  TRACK 54 AUDIO
    TITLE "0:"
    INDEX 01 01:40:67
  TRACK 55 AUDIO
    TITLE "17:cjc174_0028"
    INDEX 01 01:41:35
  TRACK 56 AUDIO
    TITLE "0:"
    INDEX 01 01:48:29
  TRACK 57 AUDIO
    TITLE "15:cjc174_0029"
    INDEX 01 01:49:03
  TRACK 58 AUDIO
    TITLE "0:"
    INDEX 01 01:50:26
  TRACK 59 AUDIO
    TITLE "16:cjc174_0030"
    INDEX 01 01:50:71
  TRACK 60 AUDIO
    TITLE "0:"
    INDEX 01 01:53:24
  TRACK 61 AUDIO
    TITLE "17:cjc174_0031"
    INDEX 01 01:53:70
  TRACK 62 AUDIO
    TITLE "0:"
    INDEX 01 02:00:66
